<svg><use xlink:href="#tag"><symbol id="tag" viewBox="0 0 32 32"><title>tag</title><path fill="#575757" style="fill: var(--color1, #575757)" d="M32 2.179c0-0.005 0-0.011 0-0.017 0-0.597-0.243-1.137-0.635-1.528l-0-0c-0.395-0.392-0.939-0.634-1.539-0.634-0.606 0-1.154 0.247-1.55 0.645l-0 0c-0.175 0.174-0.494 0.553-0.668 0.763-0.080 0.091-0.13 0.211-0.13 0.343 0 0.286 0.232 0.518 0.518 0.518 0.166 0 0.313-0.078 0.408-0.199l0.001-0.001c0.272-0.329 0.498-0.587 0.603-0.691 0.219-0.219 0.508-0.34 0.816-0.341h0.004c0.002-0 0.005-0 0.008-0 0.622 0 1.126 0.504 1.126 1.126 0 0.004-0 0.008-0 0.012v-0.001c-0.001 0.307-0.123 0.597-0.341 0.816-0.195 0.195-0.868 0.73-1.831 1.403-0.58-0.982-1.632-1.631-2.836-1.632h-7.592c-1.024 0-1.988 0.4-2.713 1.124l-15.174 15.174c-0.307 0.307-0.476 0.715-0.476 1.149s0.169 0.843 0.476 1.149l10.166 10.167c0.317 0.317 0.733 0.475 1.149 0.475s0.832-0.158 1.149-0.475l15.174-15.175c0.694-0.69 1.123-1.646 1.123-2.702 0-0.004 0-0.008-0-0.011v0.001-7.591c0-0.224-0.021-0.443-0.065-0.655 1.097-0.754 1.902-1.387 2.183-1.667 0.413-0.413 0.642-0.961 0.644-1.545zM28.201 13.637c0 0.748-0.291 1.451-0.819 1.98l-15.174 15.174c-0.107 0.106-0.254 0.172-0.416 0.172s-0.309-0.066-0.416-0.172v0l-10.165-10.166c-0.108-0.106-0.174-0.253-0.174-0.416s0.067-0.31 0.174-0.416l15.172-15.174c0.504-0.506 1.201-0.819 1.971-0.819 0.003 0 0.006 0 0.009 0h7.591c0.853 0 1.596 0.477 1.977 1.179-0.612 0.405-1.298 0.836-2.026 1.261-0.4-0.437-0.973-0.71-1.61-0.71-0.601 0-1.145 0.243-1.539 0.636l0-0c-0.393 0.394-0.637 0.939-0.637 1.54s0.243 1.145 0.637 1.54l-0-0c0.423 0.425 0.981 0.637 1.539 0.637s1.115-0.213 1.539-0.637c0.394-0.394 0.637-0.938 0.637-1.54 0-0.197-0.026-0.389-0.076-0.571l0.004 0.015c0.799-0.464 1.387-0.831 1.965-1.211l-0.164 0.101v7.597zM23.833 7.938c0.087 0.17 0.262 0.285 0.463 0.285 0.085 0 0.166-0.021 0.237-0.057l-0.003 0.001c0.303-0.153 0.606-0.311 0.907-0.475 0 0.004 0 0.010 0 0.015 0 0.63-0.511 1.141-1.141 1.141s-1.141-0.511-1.141-1.141c0-0.317 0.129-0.603 0.337-0.81l0-0c0.206-0.206 0.49-0.333 0.804-0.333 0.247 0 0.476 0.079 0.663 0.213l-0.003-0.002c-0.293 0.16-0.591 0.316-0.891 0.466-0.171 0.087-0.286 0.262-0.286 0.463 0 0.085 0.020 0.165 0.057 0.236l-0.001-0.003z"></path><path fill="#575757" style="fill: var(--color1, #575757)" d="M15.467 10.667c-0.294 0-0.533 0.227-0.533 0.508v10.718c0 0.281 0.239 0.508 0.533 0.508s0.533-0.227 0.533-0.508v-10.718c-0.007-0.282-0.237-0.508-0.52-0.508-0.005 0-0.009 0-0.014 0h0.001zM13.242 14.491c-0.832-0.832-2.187-0.832-3.018 0-0.832 0.832-0.832 2.187 0 3.019 0.416 0.416 0.962 0.624 1.509 0.624 0.546 0 1.092-0.208 1.508-0.624 0.403-0.403 0.625-0.939 0.625-1.509 0-0.57-0.222-1.106-0.625-1.509zM12.523 16.79c-0.205 0.22-0.496 0.357-0.819 0.357-0.618 0-1.119-0.501-1.119-1.119 0-0.324 0.138-0.616 0.358-0.82l0.001-0.001c0.199-0.185 0.467-0.298 0.761-0.298 0.618 0 1.119 0.501 1.119 1.119 0 0.295-0.114 0.563-0.3 0.763l0.001-0.001zM20.709 14.491c-0.832-0.832-2.187-0.832-3.019 0s-0.832 2.187 0 3.019c0.416 0.416 0.963 0.624 1.509 0.624s1.093-0.208 1.509-0.624c0.832-0.832 0.832-2.187 0-3.019zM19.99 16.79c-0.196 0.174-0.456 0.28-0.741 0.28-0.619 0-1.12-0.501-1.12-1.12 0-0.285 0.106-0.544 0.281-0.742l-0.001 0.001c0.202-0.203 0.482-0.329 0.79-0.329s0.588 0.126 0.79 0.329l0 0c0.202 0.203 0.326 0.482 0.326 0.79s-0.125 0.588-0.327 0.79l0-0z"></path></symbol></use></svg>