<svg version="1.1" id="Layer_1" xmlns="http://www.w3.org/2000/svg" xmlns:xlink="http://www.w3.org/1999/xlink" x="0px" y="0px" viewBox="0 0 291.3 291.3" style="enable-background:new 0 0 291.3 291.3;" xml:space="preserve"> <g> <path fill="#2E73B9" d="M144.7-0.1c80.4,0,145.7,65.2,145.7,145.7c0,80.4-65.2,145.7-145.7,145.7S-1,226-1,145.6 C-1,65.1,64.2-0.1,144.7-0.1z"> </path> <path fill="#FFFFFF" d="M212.8,115.7c-2.8-5.5-2.8-5.5-7-1.3c-17.5,17.5-34.9,35-52.4,52.4c-4.9,4.9-8.6,4.9-13.4,0.1 c-8.2-8.1-16.3-16.2-24.4-24.3c-1.2-1.2-2.7-2.2-2.8-4.2c0-1.9,0.3-3.7,0.1-5.6c0.5-2,1.8-3.3,3.8-3.8c1.9-0.1,3.7,0.2,5.6-0.1 c2.1,0.1,3.2,1.8,4.5,3.1c5.5,5.4,11.2,10.7,16.3,16.4c3.2,3.6,5.1,2.8,7.8-0.3c9.5-11.1,20.8-20.5,30.6-31.2 c5-5.4,10.7-10,15.7-15.5c2.6-2.8,2.2-4-0.4-6.1c-6.1-4.9-12.5-8.9-19.7-11.9c-6.9-3.3-14.2-4.6-21.8-5.6c-1.3-0.2-2.2-0.3-3.2-0.3 c-24.5,0-49.1,0-73.6,0c-1.1,0-2.2-0.3-3.1,0.6c-7.1,3.8-7.8,8.3-2.1,14.1c2.4,2.5,4.7,5.1,7.4,7.3c4,3.4,5.6,7.6,5.4,12.9 c-0.3,11-0.3,22-0.2,33.1c0.3,29.8,18.8,55.5,46.6,64.3c4.5,1.4,9.1,2.8,13.7,3.2c3.5,0.3,8.9,0.8,17.9-0.9 C208.6,203.8,233.3,155.6,212.8,115.7z"> </path> </g> </svg>