<svg version="1.1" id="Capa_1" xmlns="http://www.w3.org/2000/svg" xmlns:xlink="http://www.w3.org/1999/xlink" x="0px" y="0px" viewBox="0 0 112.2 112.2" style="enable-background:new 0 0 112.2 112.2;" xml:space="preserve"> <style type="text/css"> .tw-st0 { fill: #55ACEE; } .tw-st1 { fill: #F1F2F2; } </style> <g> <circle class="tw-st0" cx="56.1" cy="56.1" r="56.1"></circle> <g> <path class="tw-st1" d="M86.5,37.3c-2.2,1-4.6,1.7-7.2,2c2.6-1.5,4.5-4,5.5-6.9c-2.4,1.4-5.1,2.5-7.9,3c-2.3-2.4-5.5-3.9-9.1-3.9 c-6.9,0-12.5,5.6-12.5,12.5c0,1,0.1,1.9,0.3,2.8c-10.4-0.5-19.5-5.5-25.7-13c-1.1,1.8-1.7,4-1.7,6.3c0,4.3,2.2,8.1,5.5,10.4 c-2-0.1-4-0.6-5.6-1.6c0,0.1,0,0.1,0,0.2c0,6,4.3,11.1,10,12.2c-1,0.3-2.1,0.4-3.3,0.4c-0.8,0-1.6-0.1-2.3-0.2 c1.6,4.9,6.2,8.6,11.6,8.7c-4.3,3.3-9.6,5.3-15.5,5.3c-1,0-2-0.1-3-0.2c5.5,3.5,12.1,5.6,19.1,5.6c22.9,0,35.5-19,35.5-35.5 c0-0.5,0-1.1,0-1.6C82.7,42,84.8,39.8,86.5,37.3L86.5,37.3z"> </path> </g> </g> </svg>